<?xml version="1.0" encoding="UTF-8"?>
<svg id="Layer_2" data-name="Layer 2" xmlns="http://www.w3.org/2000/svg" viewBox="0 0 493.228 170.079">
  <defs>
    <style>
      .cls-1 {
        fill: #fff;
      }
    </style>
  </defs>
  <g id="Layer_1-2" data-name="Layer 1">
    <g>
      <path class="cls-1" d="M4.252,1.488h68.84c22.66,0,28.716,8.785,28.716,17.674v1.151c0,9.727-8.249,14.119-13.366,15.269,6.892,1.674,17.857,6.276,17.857,19.976v1.255c0,12.236-7.414,22.485-32.79,22.485H4.252V1.488ZM33.909,19.162v10.982h30.203c6.161,0,7.936-2.51,7.936-5.438v-.209c0-3.033-1.775-5.334-7.936-5.334h-30.203ZM33.909,47.61v13.387h32.082c7.727,0,9.19-3.66,9.19-6.693v-.314c0-3.347-1.566-6.38-9.19-6.38h-32.082Z"/>
      <polygon class="cls-1" points="252.937 50.015 211.896 1.488 247.45 1.488 268.613 28.537 290.295 1.488 322.817 1.488 282.663 50.225 282.663 79.299 252.938 79.299 252.937 50.015"/>
      <path class="cls-1" d="M365.445,80.787c-42.907,0-47.396-17.499-47.396-27.663v-1.048h32.572c.313,4.192,2.506,11.002,19.417,11.002h.94c16.599,0,19-3.563,19-7.334v-.105c0-3.981-1.984-6.496-18.269-7.02l-14.407-.42c-30.066-.838-38.104-11.421-38.104-23.471v-.942c0-12.678,8.456-23.786,44.681-23.786h9.291c38.417,0,47.186,12.26,47.186,24.624v.838h-32.258c-.313-2.829-1.984-8.278-18.791-8.278h-1.044c-15.555,0-17.121,2.725-17.121,5.763v.105c0,3.143,2.297,5.658,16.912,5.972l13.989.314c29.544.838,41.028,7.754,41.028,23.471v1.467c0,13.098-7.308,26.51-48.126,26.51h-9.5Z"/>
      <path class="cls-1" d="M53.183,170.079C10.065,170.079,0,147.265,0,130.836v-2.93c0-16.743,9.323-38.615,55.832-38.615h4.132c48.31,0,54.878,19.15,55.302,30.034v.104h-31.359c-.53-1.989-3.285-9.837-25.532-9.837-21.188,0-27.227,9-27.227,19.255v1.151c0,9.942,7.521,19.673,27.015,19.673,20.341,0,26.909-7.221,26.909-9.731h-27.651v-15.174h58.375v43.865h-18.964c-.53-2.512-2.224-7.972-3.708-10.797-3.073,3.349-12.924,12.244-37.504,12.244h-2.436Z"/>
      <rect class="cls-1" x="125.433" y="90.822" width="29.764" height="77.811"/>
      <path class="cls-1" d="M194.908,168.591h-29.636v-77.811h73.989c22.645,0,32.663,7.321,32.663,19.975v1.151c0,11.295-9.81,16.001-15.653,17.361,9.6,2.197,15.966,8.471,15.966,18.512v11.505c0,5.438.731,7.426,1.46,8.785v.523h-30.261c-.731-.836-.94-1.882-.94-4.079v-9.099c0-8.89-4.07-13.492-15.757-13.492h-31.832v26.67ZM194.908,123.096h37.467c6.574,0,8.973-2.928,8.973-6.693v-.104c0-3.66-2.295-6.589-8.973-6.589h-37.467v13.387Z"/>
      <polygon class="cls-1" points="312.334 90.78 312.334 146.313 364.535 146.313 364.535 168.591 282.756 168.591 282.756 90.78 312.334 90.78"/>
      <path class="cls-1" d="M418.595,170.079c-42.908,0-47.396-17.499-47.396-27.663v-1.048h32.571c.314,4.192,2.506,11.002,19.418,11.002h.94c16.599,0,19-3.563,19-7.334v-.105c0-3.981-1.984-6.496-18.27-7.02l-14.408-.42c-30.067-.838-38.105-11.421-38.105-23.471v-.942c0-12.678,8.456-23.786,44.682-23.786h9.291c38.419,0,47.188,12.26,47.188,24.624v.838h-32.259c-.313-2.829-1.983-8.278-18.792-8.278h-1.044c-15.555,0-17.122,2.725-17.122,5.763v.105c0,3.143,2.297,5.658,16.913,5.972l13.99.314c29.545.838,41.028,7.754,41.028,23.471v1.467c0,13.098-7.307,26.51-48.127,26.51h-9.5Z"/>
      <path class="cls-1" d="M164.659,80.787c-47.226,0-53.202-24.487-53.202-39.034v-3.139c0-14.651,5.977-38.615,53.202-38.615h4.245c47.029,0,53.104,23.964,53.104,38.615v3.139c0,14.546-5.977,39.034-53.104,39.034h-4.245ZM168.904,59.753c21.555,0,26.552-10.569,26.552-18.941v-1.464c0-8.267-4.997-18.418-26.552-18.418h-4.245c-21.947,0-26.552,10.151-26.552,18.418v1.256c0,8.162,4.996,19.15,26.552,19.15h4.245Z"/>
      <polygon class="cls-1" points="471.968 29.762 471.968 8.504 450.708 8.504 450.708 29.762 429.448 29.762 429.448 51.023 450.708 51.023 450.708 72.283 471.968 72.283 471.968 51.023 493.228 51.023 493.228 29.762 471.968 29.762"/>
    </g>
  </g>
</svg>