<?xml version="1.0" encoding="UTF-8"?>
<svg id="Layer_2" data-name="Layer 2" xmlns="http://www.w3.org/2000/svg" viewBox="0 0 652.69 267.08">
  <defs>
    <style>
      .cls-1 {
        fill: #fff;
      }
    </style>
  </defs>
  <g id="SSE_Airtricity_ID_Blue_RGB" data-name="SSE Airtricity ID Blue RGB">
    <g>
      <path class="cls-1" d="M282.29,148.12c.47-1.63,1.64-2.33,3.16-2.33h3.85c1.53,0,2.7.7,3.17,2.33l28.29,76.23c.59,2.11-.23,3.38-2.34,3.38h-2.57c-1.65,0-2.81-.69-3.27-2.33l-8.78-23.77h-32.97l-8.66,23.77c-.46,1.64-1.63,2.33-3.27,2.33h-2.46c-2.23,0-3.04-1.27-2.45-3.38l28.29-76.23ZM301.48,194.63l-10.87-29.72c-1.3-3.85-3.04-10.73-3.04-10.73h-.23s-1.88,6.88-3.16,10.73l-10.99,29.72h28.3Z"/>
      <path class="cls-1" d="M329.61,152.9v-4.19c0-1.87.93-2.92,2.8-2.92h2.93c1.88,0,2.8,1.05,2.8,2.92v4.19c0,1.87-.92,2.8-2.8,2.8h-2.93c-1.87,0-2.8-.93-2.8-2.8M329.84,172.01c0-1.87,1.05-2.91,2.92-2.91h2.23c1.87,0,2.8,1.04,2.8,2.91v52.8c0,1.87-.92,2.92-2.8,2.92h-2.23c-1.87,0-2.92-1.05-2.92-2.92v-52.8Z"/>
      <path class="cls-1" d="M352.78,172.01c0-1.87,1.05-2.91,2.92-2.91h2.11c1.75,0,2.81,1.04,2.81,2.91v7.92c0,2.57-.46,4.67-.46,4.67h.23c2.8-8.51,9.59-15.85,18.94-15.85,2.1,0,3.04.93,3.04,2.79v2.1c0,1.86-1.28,2.92-3.27,2.92-12.4,0-18.37,14.1-18.37,26.34v21.91c0,1.87-.92,2.92-2.8,2.92h-2.23c-1.87,0-2.92-1.05-2.92-2.92v-52.8Z"/>
      <path class="cls-1" d="M395.29,176.21h-4.91c-1.87,0-2.8-.93-2.8-2.79v-.94c0-1.87.93-2.92,2.8-2.92h5.03v-13.75c0-1.87,1.06-2.91,2.92-2.91h2.11c1.87,0,2.79,1.04,2.79,2.91v13.75h11.94c1.86,0,2.92,1.05,2.92,2.92v.94c0,1.86-1.06,2.79-2.92,2.79h-11.94v29.37c0,13.53,8.31,15.16,12.88,15.39,2.34.23,3.15.93,3.15,2.91v1.52c0,1.87-.92,2.8-3.27,2.8-12.86,0-20.7-7.81-20.7-21.57v-30.42Z"/>
      <path class="cls-1" d="M427.43,172.01c0-1.87,1.05-2.91,2.92-2.91h2.11c1.75,0,2.81,1.04,2.81,2.91v7.92c0,2.57-.46,4.67-.46,4.67h.22c2.81-8.51,9.59-15.85,18.95-15.85,2.1,0,3.04.93,3.04,2.79v2.1c0,1.86-1.28,2.92-3.27,2.92-12.4,0-18.37,14.1-18.37,26.34v21.91c0,1.87-.92,2.92-2.8,2.92h-2.23c-1.87,0-2.92-1.05-2.92-2.92v-52.8Z"/>
      <path class="cls-1" d="M464.41,152.9v-4.19c0-1.87.93-2.92,2.8-2.92h2.93c1.88,0,2.8,1.05,2.8,2.92v4.19c0,1.87-.92,2.8-2.8,2.8h-2.93c-1.87,0-2.8-.93-2.8-2.8M464.64,172.01c0-1.87,1.05-2.91,2.92-2.91h2.23c1.87,0,2.8,1.04,2.8,2.91v52.8c0,1.87-.92,2.92-2.8,2.92h-2.23c-1.87,0-2.92-1.05-2.92-2.92v-52.8Z"/>
      <path class="cls-1" d="M514.75,167.7c10.06,0,16.61,4.31,19.53,6.65,1.4,1.05,1.52,2.44.35,3.96l-.82,1.28c-1.05,1.63-2.34,1.63-3.97.59-2.58-1.99-7.71-5.37-14.85-5.37-12.86,0-22.92,9.68-22.92,23.66s10.06,23.55,23.04,23.55c8.19,0,13.8-3.85,16.6-6.18,1.53-1.16,2.81-.93,3.87.7l.82,1.17c.92,1.51.57,2.8-.7,3.96-3.05,2.45-10.06,7.46-20.94,7.46-17.53,0-30.87-12.47-30.87-30.66s13.44-30.77,30.87-30.77"/>
      <path class="cls-1" d="M545.87,152.9v-4.19c0-1.87.93-2.92,2.8-2.92h2.93c1.88,0,2.8,1.05,2.8,2.92v4.19c0,1.87-.92,2.8-2.8,2.8h-2.93c-1.87,0-2.8-.93-2.8-2.8M546.1,172.01c0-1.87,1.05-2.91,2.92-2.91h2.23c1.88,0,2.8,1.04,2.8,2.91v52.8c0,1.87-.92,2.92-2.8,2.92h-2.23c-1.87,0-2.92-1.05-2.92-2.92v-52.8Z"/>
      <path class="cls-1" d="M570.6,176.21h-4.92c-1.87,0-2.8-.93-2.8-2.79v-.94c0-1.87.93-2.92,2.8-2.92h5.04v-13.75c0-1.87,1.06-2.91,2.92-2.91h2.11c1.87,0,2.79,1.04,2.79,2.91v13.75h11.94c1.86,0,2.92,1.05,2.92,2.92v.94c0,1.86-1.06,2.79-2.92,2.79h-11.94v29.37c0,13.53,8.31,15.16,12.88,15.39,2.34.23,3.15.93,3.15,2.91v1.52c0,1.87-.93,2.8-3.27,2.8-12.86,0-20.7-7.81-20.7-21.57v-30.42Z"/>
      <path class="cls-1" d="M602.64,243.71c1.28.58,3.04,1.51,5.15,1.51,5.25,0,8.77-4.54,10.99-9.67l3.5-8.28-23.14-54.78c-.82-1.98.11-3.38,2.22-3.38h2.69c1.74,0,2.69.7,3.27,2.21l16.49,40.57c1.04,2.91,2.09,6.17,2.09,6.17h.24s.81-3.26,1.99-6.17l16.14-40.45c.58-1.63,1.51-2.33,3.27-2.33h2.57c2.11,0,3.05,1.28,2.35,3.38l-27.71,67.14c-3.04,7.57-9.12,12.59-16.96,12.59-3.39,0-6.2-1.16-8.06-2.1-1.53-.7-2-2.33-1.28-3.73l.7-1.28c.81-1.52,2.09-1.87,3.5-1.4"/>
      <path class="cls-1" d="M288.62,72.26c-8.14-2.82-15.17-5.25-15.17-11.14,0-5.42,4.23-8.53,11.58-8.53,6.89,0,12.18,2.43,15.7,4.03,1.34.61,2.55.92,3.61.92,1.98,0,3.45-1.05,4.55-3.2l1.57-2.83c1.75-3.66,1.04-6.39-2.14-8.12-4.55-2.49-11.82-5.8-22.33-5.8-8.5,0-16.17,2.16-21.56,6.08-5.82,4.21-8.9,10.3-8.9,17.62,0,16.03,14.01,20.98,25.26,24.94,8.07,2.85,15.03,5.31,15.03,11.1,0,5.46-4.55,8.85-11.89,8.85-7.8,0-13.4-2.97-17.48-5.13-.33-.17-.64-.34-.96-.5-1.61-.84-2.94-1.25-4.07-1.25-1.61,0-2.92.82-4.24,2.65l-1.91,2.86c-1.18,1.73-1.64,3.29-1.38,4.65.25,1.3,1.2,2.5,2.81,3.58,8.12,5.41,17.13,8.16,26.75,8.16,17.85,0,30.31-10.01,30.31-24.34,0-15.89-13.94-20.71-25.14-24.59"/>
      <path class="cls-1" d="M356.45,72.26c-8.12-2.82-15.15-5.25-15.15-11.14,0-5.42,4.21-8.53,11.57-8.53,6.87,0,12.18,2.43,15.7,4.03,1.34.61,2.55.92,3.61.92,1.98,0,3.46-1.05,4.55-3.2l1.57-2.83c1.76-3.66,1.04-6.39-2.14-8.12-4.55-2.49-11.81-5.8-22.33-5.8-8.5,0-16.17,2.16-21.56,6.08-5.82,4.21-8.9,10.3-8.9,17.62,0,16.03,14.01,20.98,25.27,24.94,8.07,2.85,15.03,5.31,15.03,11.1,0,5.46-4.55,8.85-11.89,8.85-7.8,0-13.39-2.97-17.48-5.13-.32-.17-.64-.34-.96-.5-1.61-.84-2.94-1.25-4.07-1.25-1.61,0-2.92.82-4.24,2.65l-1.91,2.86c-1.18,1.73-1.64,3.29-1.38,4.65.25,1.3,1.2,2.5,2.82,3.58,8.11,5.41,17.12,8.16,26.74,8.16,17.85,0,30.31-10.01,30.31-24.34,0-15.89-13.94-20.71-25.14-24.59"/>
      <path class="cls-1" d="M460.9,75.31v-.22c-.09-10.94-3.11-20.24-8.74-26.9-5.86-6.95-14.32-10.61-24.45-10.61-22.46,0-38.14,17.19-38.14,41.79,0,11.35,3.85,21.8,10.84,29.42,7.42,8.1,17.64,12.39,29.54,12.39s20.14-4.36,25.55-8.03c3.71-2.33,3.07-5.69,1.9-8.07l-1.8-3.19c-1.1-2.07-2.39-3.02-4.1-3.02-1,0-2.15.34-3.52,1.02-3.66,2.44-9.53,5.31-16.7,5.31-10.94,0-23.27-6.63-24.49-21.17l-.03-.42h48.12c3.59,0,6-3.23,6-6.25v-2.06ZM427.26,51.64c8.36,0,16.99,6.36,17.31,18.51v.28s-37.46,0-37.46,0l.06-.37c1.83-11.02,9.9-18.43,20.09-18.43"/>
      <path class="cls-1" d="M213.66,105.15C213.66,25.45,130.13,4.52,105.54.09c-.69-.12-1.21-.12-1.27,0h-.01.01c-.06.1.26.3,1.16.56,9.21,2.68,24.73,9.21,24.73,22.62C130.15,70.17,0,68.47,0,161.92c0,79.72,83.56,100.64,108.14,105.07,1.32.24,2.03.01.12-.55-9.21-2.68-24.75-9.2-24.75-22.63,0-46.9,130.16-45.21,130.16-138.66M10.26,161.92c0-21.65,7.52-38.72,23.66-53.72,14.67-13.64,34.62-23.53,52.22-32.26,27.92-13.83,54.28-26.9,54.28-52.69,0-2.47-.71-4.11-1.34-5.3,5.75,2.17,42.3,17.18,42.3,47.03,0,62.92-149.15,74.22-149.15,137.1,0,8.49,2.17,15.97,5.8,22.52-18.43-16.46-27.78-37.47-27.78-62.69"/>
    </g>
  </g>
</svg>