<?xml version="1.0" encoding="UTF-8"?>
<svg id="Layer_2" xmlns="http://www.w3.org/2000/svg" version="1.1" viewBox="0 0 468.4 554.7">
  <!-- Generator: Adobe Illustrator 30.5.1, SVG Export Plug-In . SVG Version: 2.1.4 Build 3)  -->
  <defs>
    <style>
      .st0 {
        fill: #00e5a5;
      }

      .st1 {
        fill: #c5f5ff;
      }

      .st2 {
        fill: #9bf080;
      }

      .st3 {
        fill: #00e4d1;
      }

      .st4 {
        fill: #f4f082;
      }

      .st5 {
        fill: #3db9eb;
      }

      .st6 {
        fill: #00804d;
      }

      .st7 {
        fill: #002975;
      }

      .st8 {
        fill: #fff;
        isolation: isolate;
        opacity: .3;
      }
    </style>
  </defs>
  <path class="st7" d="M402.3,237.4h0c-51.6,124.8-211.6,163.6-292.1,220.1h0c-19.7,12.7-39.7,29.9-44.7,56.1-4.1,22,5.9,41.1,5.9,41.1h397V128.6c0,43.9-26.5,78.6-66.1,108.8h0Z"/>
  <path class="st6" d="M125.8,395.3h0c-2.4,1.6-8.2,5.3-15.5,11-6.8,5.3-14.9,12.3-22.8,20.9-17.4,19-33.9,45.9-33.7,79.7,0,6.2.9,12,2.3,17.2,4.7,18.6,15.2,30.5,15.2,30.5,0,0-10-19.2-5.9-41.1,4.9-26.2,24.9-43.4,44.7-56.1.2-1.4.3-2.8.5-4.2,1.5-12.3,3.9-24,7.1-35,2.3-7.9,5-15.5,8.1-22.8h0Z"/>
  <path class="st2" d="M110.1,366.3c-42.7,45.1-69.4,99.8-53.9,157.8h0c-1.3-5.3-2.2-11-2.3-17.2-.3-33.8,16.2-60.7,33.7-79.7,7.9-8.6,16-15.6,22.8-20.9,7.3-5.7,13.1-9.4,15.5-11h0c.2-.4.3-.7.5-1.1.3-.8.7-1.5,1-2.3s.7-1.5,1-2.3c0-.2.2-.4.3-.6.4-.9.9-1.9,1.3-2.8.4-.7.7-1.5,1.1-2.2s.2-.4.3-.6c.4-.9.9-1.8,1.4-2.7.4-.7.7-1.5,1.1-2.2l.3-.6c.5-.9.9-1.7,1.4-2.5.4-.7.8-1.5,1.2-2.2.1-.2.2-.4.4-.6.5-.8.9-1.6,1.4-2.4.4-.8.9-1.5,1.3-2.3.1-.2.3-.4.4-.6.4-.7.9-1.5,1.4-2.2.5-.8,1-1.6,1.5-2.4.1-.2.3-.4.4-.6.4-.7.9-1.3,1.3-2,.6-.8,1.1-1.6,1.6-2.5.1-.2.3-.4.4-.6.4-.6.9-1.2,1.3-1.8.6-.9,1.2-1.7,1.8-2.6.1-.2.3-.4.4-.5.4-.5.8-1.1,1.2-1.6.7-.9,1.3-1.8,2-2.7.1-.2.3-.4.4-.5.4-.5.8-1,1.1-1.5.7-.9,1.5-1.9,2.2-2.8.1-.2.3-.3.4-.5.4-.4.7-.9,1.1-1.3.8-1,1.6-1.9,2.4-2.9.1-.1.3-.3.4-.5.3-.4.6-.7,1-1.1.9-1,1.7-2,2.6-3,.1-.1.3-.3.4-.4h0c.3-.3.6-.6.9-1,.9-1,1.9-2,2.8-3,0-.1.2-.2.3-.3h.1c.3-.4.5-.6.8-.9,1-1,2-2.1,3-3.1l.2-.2.2-.2c.2-.2.4-.5.7-.7,1.1-1.1,2.1-2.1,3.2-3.1h.1c.1-.2.2-.3.3-.4.2-.2.4-.4.6-.5,1.1-1.1,2.2-2.1,3.4-3.2h0l.4-.4c.2-.1.3-.3.5-.4,1.3-1.2,2.7-2.4,4-3.6.1-.1.3-.2.4-.4,1.4-1.2,2.8-2.4,4.2-3.6.1,0,.2-.2.3-.3,1.4-1.2,2.9-2.4,4.3-3.6,0,0,.2-.1.3-.2,1.5-1.2,2.9-2.4,4.4-3.6,0,0,.2-.1.2-.2,1.5-1.2,3-2.4,4.5-3.5,0,0,.2-.1.2-.2,1.4-1,2.7-2,4.1-3.1h0c.1-.1.3-.2.4-.3,0,0,.2-.1.3-.2,1.4-1,2.7-2,4.1-3,0,0,.1,0,.2-.1.1,0,.2-.2.3-.2s.2-.1.3-.2c1.4-1,2.7-1.9,4.1-2.9.1,0,.2-.1.3-.2,0,0,.1-.1.2-.1s.3-.2.4-.3c1.3-.9,2.7-1.9,4.1-2.8.2-.1.3-.2.5-.3h0c.2-.1.4-.2.5-.4,1.3-.9,2.6-1.8,4-2.6.2-.1.4-.2.6-.4.2-.1.4-.3.6-.4,1.3-.8,2.6-1.7,3.9-2.5.2-.1.4-.3.6-.4.2-.1.5-.3.7-.4,1.2-.8,2.5-1.6,3.7-2.3.2-.2.5-.3.8-.5s.5-.3.8-.5c1.2-.7,2.3-1.4,3.5-2.1.3-.2.6-.4.9-.5.3-.2.6-.4.9-.6,1.1-.6,2.1-1.3,3.2-1.9.4-.2.7-.4,1.1-.6.4-.2.7-.4,1.1-.6,1-.6,1.9-1.1,2.9-1.7.4-.2.8-.5,1.3-.7.4-.2.9-.5,1.3-.7.5-.3.9-.5,1.4-.8-45.4,22.6-108.5,61.5-149,104.2h0v-.3Z"/>
  <path class="st2" d="M110.2,457.4c.2-1.4.3-2.8.5-4.2-.2,1.4-.3,2.8-.5,4.2h0Z"/>
  <path class="st0" d="M309.2,293.5c-7.2,3.7-14.5,7.4-21.8,11.1-14,7-28.2,14-42.2,21-43.7,21.9-86.2,44.2-119.3,69.7h0c-3.1,7.3-5.8,14.9-8.1,22.8-3.2,11-5.6,22.7-7.1,35-.2,1.4-.3,2.8-.5,4.2h0c80.5-56.5,240.5-95.2,292.1-220.1-25.7,19.6-56.8,37.3-89.7,54.4-1.1.6-2.3,1.2-3.4,1.8h0Z"/>
  <path class="st1" d="M417.4,177.1h0c-1.2.9-2.5,1.8-3.8,2.6h0c-1.3.9-2.5,1.7-3.8,2.6-.2.1-.4.3-.6.4-1.1.7-2.2,1.4-3.4,2.2-.2.1-.5.3-.7.4-1.1.7-2.3,1.4-3.4,2.1-.3.2-.7.4-1,.6-1.1.6-2.1,1.3-3.2,1.9-.4.2-.7.4-1.1.6-1.1.6-2.1,1.3-3.2,1.9-.4.2-.8.4-1.1.7-1.1.6-2.2,1.2-3.2,1.9l-1.2.6c-1.1.6-2.2,1.2-3.3,1.9l-1.2.6c-1.1.6-2.2,1.2-3.4,1.9-.3.2-.7.4-1,.6-1.2.6-2.4,1.3-3.6,1.9-.3.2-.6.3-.9.5-1.3.7-2.5,1.3-3.8,2-.3.1-.5.3-.8.4-1.3.7-2.6,1.4-4,2.1-.3.1-.5.3-.8.4-1.4.7-2.7,1.4-4.1,2.1-.2,0-.3.2-.5.2-1.5.8-3,1.5-4.5,2.3-.1,0-.2.1-.4.2-2,1-4,2-6.1,3-3.4,1.7-6.8,3.4-10.3,5.1-9,4.4-18.1,8.9-27.4,13.6-2.1,1.1-4.3,2.1-6.4,3.2-.3.1-.5.3-.8.4l-4.2,2.1c-.4.2-.8.4-1.1.6-1.3.7-2.7,1.4-4,2.1-.4.2-.9.4-1.3.7-1.3.7-2.5,1.3-3.8,2-.5.3-1,.5-1.5.8l-3.7,1.9c-.6.3-1.1.6-1.7.9-1.2.6-2.4,1.3-3.6,1.9-.6.3-1.2.6-1.7.9-1.1.6-2.3,1.2-3.5,1.9-.6.3-1.2.7-1.9,1-1.1.6-2.2,1.2-3.4,1.9-.6.4-1.3.7-1.9,1.1-1.1.6-2.2,1.2-3.3,1.9-.7.4-1.3.8-2,1.1-1.1.6-2.1,1.2-3.2,1.8-.3.2-.5.3-.8.5-.4.2-.9.5-1.3.7s-.8.5-1.3.7c-1,.6-1.9,1.1-2.9,1.7-.4.2-.7.4-1.1.6-.4.2-.7.4-1.1.6-1.1.6-2.1,1.3-3.2,1.9-.3.2-.6.4-.9.6-.3.2-.6.4-.9.5-1.2.7-2.3,1.4-3.5,2.1-.3.2-.5.3-.8.5s-.5.3-.8.5c-1.2.8-2.5,1.5-3.7,2.3-.2.1-.5.3-.7.4s-.4.3-.6.4c-1.3.8-2.6,1.7-3.9,2.5-.2.1-.4.3-.6.4-.2.1-.4.2-.6.4-1.3.9-2.6,1.8-4,2.6-.2.1-.4.2-.5.4h0c-.2.1-.3.2-.5.3-1.4.9-2.7,1.8-4.1,2.8-.1,0-.3.2-.4.3,0,0-.1.1-.2.1s-.2.1-.3.2c-1.4,1-2.7,1.9-4.1,2.9-.1,0-.2.1-.3.2-.1,0-.2.2-.3.2,0,0-.1,0-.2.1-1.4,1-2.7,2-4.1,3,0,0-.2.1-.3.2s-.3.2-.4.3h0c-1.4,1-2.7,2-4.1,3.1,0,0-.2.1-.2.2-1.5,1.2-3,2.3-4.5,3.5,0,0-.2.1-.2.2-1.5,1.2-3,2.4-4.4,3.6,0,0-.2.1-.3.2-.6.5-1.2,1-1.8,1.5-.3.2-.6.5-.8.7-.6.5-1.1.9-1.7,1.4-.1,0-.2.2-.3.3-.5.4-.9.8-1.4,1.2-.4.4-.8.7-1.2,1-.5.5-1.1.9-1.6,1.4s-.3.2-.4.4c-.1,0-.2.2-.3.3-.7.6-1.4,1.3-2.2,2-.5.5-1,.9-1.5,1.4-.2.1-.3.3-.5.4l-.4.4h0c-1.1,1-2.3,2.1-3.4,3.2-.2.2-.4.4-.6.5-.1.1-.2.2-.3.3h-.1c-1.1,1.1-2.1,2.2-3.2,3.2-.2.2-.4.5-.7.7l-.2.2-.2.2c-1,1-2,2.1-3,3.1-.3.3-.5.5-.8.8h-.1c0,.2-.2.3-.3.4-.9,1-1.9,2-2.8,3-.3.3-.6.6-.9,1h0c-.1.1-.3.3-.4.4-.9,1-1.8,2-2.6,3-.3.4-.6.7-1,1.1s-.3.3-.4.5c-.8,1-1.6,1.9-2.4,2.9-.4.4-.7.9-1.1,1.3-.1.2-.3.3-.4.5-.8.9-1.5,1.8-2.2,2.8-.4.5-.8,1-1.1,1.5-.1.2-.3.4-.4.5-.7.9-1.3,1.8-2,2.7-.4.5-.8,1.1-1.2,1.6-.1.2-.3.4-.4.5-.6.8-1.2,1.7-1.8,2.6-.4.6-.9,1.2-1.3,1.8-.1.2-.3.4-.4.6-.6.8-1.1,1.6-1.6,2.5-.4.7-.9,1.3-1.3,2-.1.2-.3.4-.4.6-.5.8-1,1.6-1.5,2.4-.5.7-.9,1.5-1.4,2.2-.1.2-.3.4-.4.6-.5.8-.9,1.5-1.3,2.3-.5.8-.9,1.6-1.4,2.4-.1.2-.2.4-.4.6-.4.7-.8,1.5-1.2,2.2-.5.9-.9,1.7-1.4,2.5l-.3.6c-.4.7-.8,1.5-1.1,2.2-.5.9-.9,1.8-1.4,2.7l-.3.6c-.4.7-.7,1.5-1.1,2.2-.4.9-.9,1.9-1.3,2.8,0,.2-.2.4-.3.6-.4.8-.7,1.5-1,2.3s-.7,1.5-1,2.3c-.2.4-.3.7-.5,1.1h0c.2-.5.4-1,.6-1.5-.2.5-.4,1-.6,1.5h0c32.1-24.7,73-46.4,115.3-67.6,1.4-.7,2.7-1.4,4.1-2,7-3.5,14.1-7,21.1-10.5s14.1-7,21.1-10.5c7.3-3.7,14.6-7.4,21.8-11.1,1.1-.6,2.3-1.2,3.4-1.8,32.9-17.1,64.1-34.8,89.7-54.4h0c.4-.9.8-1.8,1.1-2.8,6.9-17.4,11.7-36.5,14-57.5.2-.2.4-.3.6-.5-.2.2-.4.3-.6.5h-.3Z"/>
  <path class="st5" d="M462.7,95.9c-.1-.4-.3-.8-.4-1.1,1.1,3.6,1.7,7.3,1.7,11.3,0,28.7-18.3,50.7-46,70.5-.2.2-.4.3-.6.5-2.2,21-7,40.1-14,57.5-.4.9-.7,1.9-1.1,2.8,39.5-30.2,66.1-64.9,66.1-108.8s-2.1-22.6-5.7-32.7h0Z"/>
  <path class="st3" d="M462.3,94.8c.1.4.3.7.4,1.1-.1-.4-.2-.8-.3-1.1-1-2.7-2.1-5.4-3.3-7.9h0c-16-29.7-66.1-42.6-71.3-44.1h0c10.8,17,19.2,35.5,24.5,55.6.1.4.2.8.3,1.2.2.7.3,1.3.5,2,3.7,15.2,5.8,31.3,5.8,48.5s-.6,18.3-1.5,27h0c.2-.2.4-.3.6-.5,27.6-19.7,46-41.7,46-70.5s-.6-7.8-1.7-11.4h0Z"/>
  <path class="st4" d="M459.1,86.8C433.9,32.8,365.5,5,352.8.2c13.3,13,25.1,27,35,42.5h0c5.2,1.5,55.2,14.4,71.3,44.1h0Z"/>
  <path class="st8" d="M56.2,524.1c-15.6-58.1,11.1-112.7,53.9-157.8,40.4-42.7,103.6-81.5,149-104.2-.5.3-.9.5-1.4.8.3-.2.5-.3.8-.5,1.1-.6,2.1-1.2,3.2-1.8.7-.4,1.3-.8,2-1.1,1.1-.6,2.2-1.2,3.3-1.9.6-.4,1.3-.7,1.9-1.1,1.1-.6,2.2-1.2,3.4-1.9.6-.3,1.2-.7,1.9-1,1.1-.6,2.3-1.2,3.5-1.9.6-.3,1.2-.6,1.7-.9,1.2-.6,2.4-1.3,3.6-1.9.6-.3,1.1-.6,1.7-.9,1.2-.6,2.4-1.3,3.7-1.9.5-.3,1-.5,1.5-.8,1.3-.7,2.5-1.3,3.8-2,.4-.2.9-.4,1.3-.7,1.3-.7,2.7-1.4,4-2.1.4-.2.8-.4,1.1-.6l4.2-2.1c.3-.1.5-.3.8-.4,17.2-8.7,34.2-16.9,50.2-25,.1,0,.2-.1.4-.2,1.5-.8,3-1.5,4.5-2.3.2,0,.3-.2.5-.2,1.4-.7,2.7-1.4,4.1-2.1.3-.1.5-.3.8-.4,1.3-.7,2.6-1.4,4-2.1.3-.1.5-.3.8-.4,1.3-.7,2.5-1.3,3.8-2,.3-.2.6-.3.9-.5,1.2-.6,2.4-1.3,3.6-1.9.3-.2.7-.4,1-.6,1.1-.6,2.3-1.2,3.4-1.9l1.2-.6c1.1-.6,2.2-1.2,3.3-1.9l1.2-.6c1.1-.6,2.2-1.2,3.2-1.9.4-.2.8-.4,1.1-.7,1.1-.6,2.1-1.3,3.2-1.9.4-.2.7-.4,1.1-.6,1.1-.6,2.1-1.3,3.2-1.9.3-.2.7-.4,1-.6,1.2-.7,2.3-1.4,3.4-2.1.2-.1.5-.3.7-.4,1.1-.7,2.2-1.4,3.4-2.2.2-.1.4-.3.6-.4,1.3-.9,2.6-1.7,3.8-2.6h0c1.3-.9,2.5-1.8,3.8-2.6.9-8.7,1.4-17.6,1.4-27,0-17.2-2-33.3-5.7-48.5-.2-.7-.3-1.3-.5-2-.1-.4-.2-.8-.3-1.2-5.3-20.2-13.7-38.7-24.5-55.6h0c-9.8-15.5-21.7-29.5-35-42.5-.3,70.2-69.1,114.9-145.3,152.6-48.1,23.9-102.7,50.9-142.8,88.2C20.6,282,0,328.7,0,387.9s27.3,120.4,71.4,166.8c0,0-10.5-11.9-15.2-30.5h0Z"/>
</svg>